{"title":"Ghost Ship-720p MP4 AAC BRRip 2002-CC","uid":7082069,"size":2034262069,"categoryP":"video","categoryS":"hd___movies","magnet":"?xt=urn:btih:8fc2ed16e6c060e7a278aa7e71c8861c63b0ba21&amp;dn=Ghost+Ship-720p+MP4+AAC+BRRip+2002-CC&amp;tr=udp%3A%2F%2Ftracker.openbittorrent.com%3A80&amp;tr=udp%3A%2F%2Fopen.demonii.com%3A1337&amp;tr=udp%3A%2F%2Ftracker.coppersurfer.tk%3A6969&amp;tr=udp%3A%2F%2Fexodus.desync.com%3A6969","seeders":0,"leechers":1,"uploader":"Caveman44","files":-1,"time":1331068659,"description":"Source: Ghost.Ship.2002.720p.BD5.x264-IGUANA\n\nSubs: Arabic, Bulgarian, Croatian, Danish, Dutch, English, Estonian, Finnish, French, Greek, Servian, Slovenian, Spanish, Swedish, Thai, Turkish and Vietnamese.\n\nSample and Screens included.\n\nGeneral\nComplete name                    : Ghost Ship-720p MP4 AAC BRRip 2002-CC.mp4\nFormat                           : MPEG-4\nFormat profile                   : Base Media\nCodec ID                         : isom\nFile size                        : 1.88 GiB\nDuration                         : 1h 30mn\nOverall bit rate                 : 2 960 Kbps\n\nVideo\nID                               : 1\nFormat                           : AVC\nFormat/Info                      : Advanced Video Codec\nFormat profile                   : &lt;a class=&quot;__cf_email__&quot; href=&quot;/cdn-cgi/l/email-protection&quot; data-cfemail=&quot;5b13323c331b1768756a&quot;&gt;[email&amp;#160;protected]&lt;/a&gt;&lt;script cf-hash='f9e31' type=&quot;text/javascript&quot;&gt;\n/* &lt;![CDATA[ */!function(){try{var t=&quot;currentScript&quot;in document?document.currentScript:function(){for(var t=document.getElementsByTagName(&quot;script&quot;),e=t.length;e--;)if(t[e].getAttribute(&quot;cf-hash&quot;))return t[e]}();if(t&amp;&amp;t.previousSibling){var e,r,n,i,c=t.previousSibling,a=c.getAttribute(&quot;data-cfemail&quot;);if(a){for(e=&quot;&quot;,r=parseInt(a.substr(0,2),16),n=2;a.length-n;n+=2)i=parseInt(a.substr(n,2),16)^r,e+=String.fromCharCode(i);e=document.createTextNode(e),c.parentNode.replaceChild(e,c)}}}catch(u){}}();/* ]]&gt; */&lt;/script&gt;\nFormat settings, CABAC           : Yes\nFormat settings, ReFrames        : 5 frames\nCodec ID                         : avc1\nCodec ID/Info                    : Advanced Video Coding\nDuration                         : 1h 30mn\nBit rate mode                    : Variable\nBit rate                         : 2 571 Kbps\nNominal bit rate                 : 2 632 Kbps\nMaximum bit rate                 : 28.0 Mbps\nWidth                            : 1 280 pixels\nHeight                           : 720 pixels\nDisplay aspect ratio             : 16:9\nFrame rate mode                  : Variable\nFrame rate                       : 23.976 fps\nMinimum frame rate               : 19.048 fps\nMaximum frame rate               : 24.390 fps\nResolution                       : 24 bits\nColorimetry                      : 4:2:0\nScan type                        : Progressive\nBits/(Pixel*Frame)               : 0.116\nStream size                      : 1.63 GiB (87%)\nWriting library                  : x264 core 112\n\n\nAudio\nID                               : 2\nFormat                           : AAC\nFormat/Info                      : Advanced Audio Codec\nFormat version                   : Version 4\nFormat profile                   : LC\nFormat settings, SBR             : No\nCodec ID                         : 40\nDuration                         : 1h 30mn\nBit rate mode                    : Variable\nBit rate                         : 384 Kbps\nMaximum bit rate                 : 654 Kbps\nChannel(s)                       : 6 channels\nChannel positions                : Front: L C R, Rear: L R, LFE\nSampling rate                    : 48.0 KHz\nResolution                       : 16 bits\nStream size                      : 249 MiB (13%)\nLanguage                         : English\n\nEnjoy...","torrent":{"xt":"urn:btih:8fc2ed16e6c060e7a278aa7e71c8861c63b0ba21","amp;dn":"Ghost+Ship-720p+MP4+AAC+BRRip+2002-CC","amp;tr":["udp%3A%2F%2Ftracker.openbittorrent.com%3A80","udp%3A%2F%2Fopen.demonii.com%3A1337","udp%3A%2F%2Ftracker.coppersurfer.tk%3A6969","udp%3A%2F%2Fexodus.desync.com%3A6969"],"infoHash":"8fc2ed16e6c060e7a278aa7e71c8861c63b0ba21","infoHashBuffer":{"type":"Buffer","data":[143,194,237,22,230,192,96,231,162,120,170,126,113,200,134,28,99,176,186,33]},"announce":[],"urlList":[]}}